Coordinates
version=1
nRows=11
nColumns=40
inDegrees=yes

Units are S.I. units (second, meters, Newtons, ...)
Angles are in degrees.

endheader
time	pelvis_tilt	pelvis_list	pelvis_rotation	pelvis_tx	pelvis_ty	pelvis_tz	hip_flexion_r	hip_adduction_r	hip_rotation_r	knee_angle_r	knee_angle_r_beta	ankle_angle_r	subtalar_angle_r	mtp_angle_r	hip_flexion_l	hip_adduction_l	hip_rotation_l	knee_angle_l	knee_angle_l_beta	ankle_angle_l	subtalar_angle_l	mtp_angle_l	lumbar_extension	lumbar_bending	lumbar_rotation	arm_flex_r	arm_add_r	arm_rot_r	elbow_flex_r	pro_sup_r	wrist_flex_r	wrist_dev_r	arm_flex_l	arm_add_l	arm_rot_l	elbow_flex_l	pro_sup_l	wrist_flex_l	wrist_dev_l
      2.62000000	    -11.23261858	      1.71781035	      8.06238718	      0.97849290	      1.00211061	     -0.36445606	      5.11828619	     -1.11856027	     -3.14028235	     88.07745183	      1.53724153	    -15.22630434	      0.00000000	      0.00000000	     36.77768161	      9.81551627	     -1.29763111	     27.48908268	      0.47977500	     -6.69590756	      0.00000000	      0.00000000	     -1.78867539	     -3.39288292	      1.94053275	    -23.75378807	    -21.56918007	     -1.49101799	    100.83883848	     61.93826096	      0.00000000	      0.00000000	    -40.84670024	    -19.29819356	     -9.13165486	    118.62847488	     57.66270960	      0.00000000	      0.00000000
      2.63000000	    -10.62270174	      2.25502058	      8.33089780	      0.97512905	      0.99639374	     -0.36488399	      7.53658330	     -2.37581197	     -3.06169812	     93.05511200	      1.62411809	    -14.58990698	      0.00000000	      0.00000000	     35.83121927	     10.57864017	     -0.99772672	     30.82186516	      0.53794303	     -5.15798816	      0.00000000	      0.00000000	     -3.41278032	     -3.82622663	      0.67891067	    -24.13588891	    -21.37858785	     -1.31568740	     97.78498699	     61.93841054	      0.00000000	      0.00000000	    -38.27503510	    -18.90893827	     -8.71102691	    117.17769603	     57.61932128	      0.00000000	      0.00000000
      2.64000000	    -10.74162981	      3.79377633	      8.37885631	      0.97251703	      0.98922088	     -0.36482187	     10.50185100	     -5.21992573	     -2.95745034	     97.69636284	      1.70512320	    -11.94804138	      0.00000000	      0.00000000	     36.91200153	     12.16716484	     -1.36454788	     37.97723806	      0.66282784	      0.30841098	      0.00000000	      0.00000000	     -3.77118381	     -5.73203278	     -0.53570952	    -23.72366549	    -20.74115213	     -1.14254028	     92.83552835	     62.02370582	      0.00000000	      0.00000000	    -35.79259257	    -19.32912472	     -7.91011345	    114.71992989	     57.49420834	      0.00000000	      0.00000000
      2.65000000	    -11.08079247	      4.22587816	      8.40361017	      0.96903388	      0.98260977	     -0.36452706	     14.29978959	     -6.63745659	     -2.51277682	    101.89772347	      1.77845077	    -10.17315410	      0.00000000	      0.00000000	     36.99661725	     12.70090327	     -1.24199789	     42.39970811	      0.74001451	      4.53944949	      0.00000000	      0.00000000	     -4.06330529	     -6.47235424	     -1.93307342	    -23.71602069	    -20.66643068	     -0.89946039	     89.24513723	     62.22173227	      0.00000000	      0.00000000	    -33.37043715	    -19.19323665	     -7.23390660	    112.82886636	     57.35374970	      0.00000000	      0.00000000
      2.66000000	    -10.87043911	      4.20363481	      8.47506480	      0.96580555	      0.97871687	     -0.36427122	     17.73138195	     -7.28241053	     -2.16607999	    105.05984824	      1.83364026	     -9.59399500	      0.00000000	      0.00000000	     35.20685136	     12.62113917	     -0.92645096	     44.05943824	      0.76898226	      6.14373794	      0.00000000	      0.00000000	     -5.01130248	     -6.36869165	     -3.53915078	    -24.04584617	    -20.80766607	     -0.76340927	     87.27618120	     62.28459924	      0.00000000	      0.00000000	    -31.07462789	    -18.87972253	     -6.89734352	    111.70264245	     57.27109928	      0.00000000	      0.00000000
      2.67000000	    -11.05842611	      4.43528237	      7.92144186	      0.96206834	      0.97567416	     -0.36417790	     21.91551567	     -8.19712565	     -0.98293272	    107.69824363	      1.87968895	     -7.99855294	      0.00000000	      0.00000000	     33.83899039	     13.00349558	      0.20963799	     46.09999337	      0.80459667	      9.63004989	      0.00000000	      0.00000000	     -5.20751891	     -6.58359739	     -4.35152546	    -23.75163471	    -20.98683615	     -0.45608755	     84.20234112	     62.51676962	      0.00000000	      0.00000000	    -28.26058327	    -18.68717408	     -6.45298805	    109.59312387	     57.14290805	      0.00000000	      0.00000000
      2.68000000	    -12.29277225	      4.32149080	      7.28597571	      0.96078871	      0.97311940	     -0.36337318	     27.05201926	     -8.08542021	      0.56278732	    109.33298174	      1.90822051	     -5.92398874	      0.00000000	      0.00000000	     32.67424248	     12.72225963	      0.50456535	     46.43004733	      0.81035720	     13.27037901	      0.00000000	      0.00000000	     -3.55588372	     -6.62705682	     -4.81670018	    -24.85994588	    -21.07384225	     -0.09349809	     81.49836909	     63.21719077	      0.00000000	      0.00000000	    -26.65830909	    -18.65600418	     -5.80604221	    108.04059691	     57.03365347	      0.00000000	      0.00000000
      2.69000000	    -12.19633198	      4.15626161	      7.02960806	      0.95959434	      0.97410904	     -0.36345429	     30.60575688	     -8.20691707	      1.15938875	    109.89653454	      1.91805636	     -5.52560206	      0.00000000	      0.00000000	     30.06570606	     12.29585829	      0.57162189	     46.68352405	      0.81478120	     13.60218916	      0.00000000	      0.00000000	     -3.87029686	     -6.24501163	     -6.21174755	    -25.89624655	    -21.40123004	     -0.16071987	     81.06869173	     63.25637608	      0.00000000	      0.00000000	    -25.44754321	    -18.31197732	     -5.78842478	    108.24672581	     57.00937815	      0.00000000	      0.00000000
      2.70000000	    -12.82283273	      4.07627562	      5.73296130	      0.95900170	      0.97567296	     -0.36309764	     35.07524021	     -7.81477381	      2.69174864	    109.88843245	      1.91791496	     -4.21511457	      0.00000000	      0.00000000	     27.33298202	     11.94663674	      1.02229818	     45.07259652	      0.78666521	     15.35026861	      0.00000000	      0.00000000	     -2.88009525	     -6.06240993	     -6.23617968	    -27.32766686	    -21.89732464	     -0.53861059	     81.60322310	     63.50599290	      0.00000000	      0.00000000	    -24.71036998	    -17.40384813	     -6.42915736	    109.47574354	     57.00093757	      0.00000000	      0.00000000
      2.71000000	    -12.60561343	      4.02800125	      5.22860002	      0.95870522	      0.97904751	     -0.36265690	     38.26131539	     -8.01090213	      2.94154002	    109.21594693	      1.90617787	     -3.89235400	      0.00000000	      0.00000000	     24.50468895	     11.52360578	      1.01342425	     45.57271429	      0.79539391	     15.23412710	      0.00000000	      0.00000000	     -2.68880579	     -5.90280762	     -7.46749469	    -28.14330452	    -21.93462654	     -0.61494519	     81.53457275	     63.46806031	      0.00000000	      0.00000000	    -24.21471847	    -17.41240705	     -6.42954781	    109.72841458	     56.98158091	      0.00000000	      0.00000000
      2.72000000	    -13.81421437	      3.22676054	      4.27048077	      0.95917552	      0.98284359	     -0.36440853	     42.58113055	     -6.84373470	      3.69866326	    107.17256927	      1.87051420	     -2.72267029	      0.00000000	      0.00000000	     21.27179019	     10.50679515	      0.96625003	     41.31497424	      0.72108233	     15.06210306	      0.00000000	      0.00000000	     -0.84651573	     -4.60641190	     -7.78318437	    -30.48382291	    -23.25026179	     -1.64331306	     83.93772081	     63.50447215	      0.00000000	      0.00000000	    -24.31955801	    -15.67522065	     -7.11876637	    113.63471664	     57.01466753	      0.00000000	      0.00000000
